<svg version="1.1" id="Layer_1" xmlns="http://www.w3.org/2000/svg" xmlns:xlink="http://www.w3.org/1999/xlink" x="0px" y="0px"
	 width="100%" viewBox="0 0 1024 1024" enable-background="new 0 0 1024 1024" xml:space="preserve">
<path fill="#000000" opacity="1.000000" stroke="none" 
	d="
M416.434692,738.442383 
	C401.865997,751.407593 387.638275,764.228516 373.201050,776.809021 
	C366.546997,782.607361 358.693085,783.984985 350.272827,781.225586 
	C340.837372,778.133423 334.691040,769.660583 334.677368,759.661011 
	C334.633759,727.831299 334.534576,696.000427 334.785767,664.172668 
	C334.824463,659.267578 333.239288,656.160278 329.548828,653.235840 
	C299.388123,629.336182 269.327515,605.310059 239.238739,581.319580 
	C226.865204,571.453918 214.370697,561.734924 202.157776,551.674133 
	C185.862549,538.250427 188.931320,514.956604 208.166901,506.350220 
	C234.920471,494.380127 261.811646,482.717834 288.624756,470.880341 
	C294.006470,468.504395 299.150909,468.783112 303.614990,472.568848 
	C307.660309,475.999512 308.703735,480.700043 307.176300,485.759705 
	C305.816620,490.263458 302.307007,492.631256 298.158447,494.452332 
	C273.154510,505.428406 248.185257,516.483765 223.227249,527.563965 
	C221.452621,528.351807 219.395279,528.796814 218.147659,530.630432 
	C218.794601,532.709229 220.577866,533.732788 222.109177,534.956543 
	C262.712830,567.405212 303.350128,599.812012 343.872803,632.361511 
	C346.508881,634.478882 347.993866,633.969788 350.212189,632.122009 
	C380.800934,606.642761 411.419891,581.199707 442.072388,555.797119 
	C480.289825,524.125244 518.561829,492.519135 556.778931,460.846802 
	C588.196350,434.809753 619.547119,408.692352 650.965881,382.657013 
	C682.643311,356.407318 714.373901,330.221649 746.065002,303.988373 
	C749.848022,300.856873 753.529358,297.602509 757.839722,293.906097 
	C754.785217,293.295135 753.066162,294.393524 751.326538,295.155060 
	C717.464111,309.978638 683.602783,324.804779 649.763428,339.681030 
	C621.715210,352.011383 593.704224,364.426300 565.658142,376.761383 
	C558.108521,380.081787 550.787598,377.698669 547.867615,371.129395 
	C544.805603,364.240601 547.843689,356.994507 555.473572,353.624908 
	C593.407227,336.872192 631.375000,320.196686 669.322449,303.475128 
	C711.230164,285.008423 753.143860,266.555267 795.024902,248.028107 
	C814.647217,239.347672 835.196167,252.148392 834.258301,272.598053 
	C834.031311,277.546814 832.145203,281.993011 829.752441,286.227081 
	C794.846741,347.995148 759.890930,409.734924 725.016174,471.520508 
	C700.372192,515.180786 675.875793,558.924377 651.234436,602.586060 
	C626.431030,646.534851 601.517334,690.421204 576.678284,734.349854 
	C567.252686,751.019287 557.803894,767.676819 548.541077,784.436768 
	C538.495056,802.613953 521.347534,806.262512 505.204071,793.403320 
	C480.711212,773.893494 456.244141,754.351196 431.785339,734.798706 
	C426.018097,730.188293 426.052399,730.143250 420.469971,734.931824 
	C419.205750,736.016296 417.949768,737.110291 416.434692,738.442383 
M603.072388,455.605927 
	C575.062683,478.712189 547.021423,501.780365 519.050476,524.933472 
	C474.406311,561.887878 429.805542,598.894653 385.195770,635.890625 
	C379.355560,640.734009 373.570587,645.644104 367.160339,651.026855 
	C368.877655,652.411133 370.028473,653.350220 371.191193,654.274353 
	C389.316620,668.679993 407.456818,683.067078 425.567169,697.491577 
	C456.709412,722.295593 487.838318,747.116333 518.959473,771.946716 
	C523.658997,775.696228 524.294617,775.566895 527.402405,770.029785 
	C536.695923,753.471558 545.974792,736.904907 555.323425,720.377808 
	C583.205139,671.086365 611.151001,621.831116 639.007690,572.525513 
	C664.570007,527.280823 690.040344,481.984161 715.567566,436.719666 
	C734.468384,403.204926 753.405640,369.710785 772.305420,336.195465 
	C779.233887,323.909210 786.101318,311.588562 792.996643,299.283600 
	C768.737061,318.201508 745.193115,337.703308 721.645569,357.200775 
	C699.198120,375.787323 676.732666,394.352264 654.301880,412.958954 
	C637.383301,426.993195 620.506897,441.078308 603.072388,455.605927 
M359.991852,738.491150 
	C360.293884,743.226013 359.395081,748.035400 360.842682,753.866699 
	C375.974945,740.434021 390.507477,727.533691 405.617828,714.120422 
	C390.258209,701.847473 375.793243,690.289368 361.328278,678.731262 
	C360.881927,678.922729 360.435608,679.114197 359.989288,679.305664 
	C359.989288,698.702026 359.989288,718.098389 359.991852,738.491150 
z"/>
<path fill="#000000" opacity="1.000000" stroke="none" 
	d="
M445.353149,474.556030 
	C415.104797,485.839447 384.733521,486.991302 355.210175,475.058746 
	C307.989044,455.973267 278.426941,421.692261 271.606110,370.097870 
	C262.600952,301.980896 309.249725,238.824005 376.928680,226.988205 
	C434.677185,216.889053 492.101654,246.927536 516.620972,300.388733 
	C526.384705,321.677277 530.478516,344.117828 527.522766,367.511993 
	C521.019653,418.982605 493.233093,454.274170 445.353149,474.556030 
M301.785553,319.199829 
	C292.198975,347.734100 293.855652,375.437836 307.691986,402.340088 
	C327.817139,441.469788 373.202393,464.055237 416.519714,456.491882 
	C471.799622,446.839813 510.876282,394.762878 501.735443,337.542145 
	C493.146393,283.775543 443.755890,245.326752 389.884399,251.169205 
	C347.190186,255.799454 318.212189,278.899963 301.785553,319.199829 
z"/>
<path fill="#000000" opacity="1.000000" stroke="none" 
	d="
M93.076675,979.101501 
	C95.094757,977.464294 96.217865,975.220398 99.664352,974.396118 
	C97.271645,979.334167 93.534096,982.071228 90.245270,985.086243 
	C87.912766,987.224548 85.591309,989.298035 83.622383,991.813599 
	C79.549728,997.017151 73.160500,997.581970 68.341621,992.964478 
	C61.016834,985.945740 53.918873,978.689758 46.748764,971.510376 
	C43.467255,968.224670 42.834278,964.271301 44.181187,959.968323 
	C44.849869,957.832092 45.333870,955.705688 44.195328,953.670654 
	C40.229420,946.582153 41.962349,940.661316 47.549679,935.276733 
	C55.199890,927.904114 62.740074,920.416870 70.293259,912.944153 
	C74.035721,909.241577 78.531136,908.344360 83.153046,910.335266 
	C86.826035,911.917480 90.151390,913.195190 94.035789,911.263489 
	C95.220451,910.674377 96.620178,910.887207 98.073463,912.395203 
	C93.129242,914.439819 88.808502,917.014160 83.520760,913.857788 
	C79.242973,911.304443 75.232292,912.284424 71.729294,915.747375 
	C64.037903,923.350708 56.287323,930.894287 48.617954,938.519653 
	C44.887318,942.228943 44.051025,946.587402 46.512829,951.299438 
	C48.084381,954.307495 48.506962,957.305664 47.172657,960.415527 
	C45.477917,964.365479 46.738598,967.646729 49.492817,970.420349 
	C56.059631,977.033386 62.661293,983.617798 69.432106,990.020020 
	C73.679352,994.036011 76.591949,993.890564 81.364098,990.449158 
	C85.736984,987.295715 88.979813,983.017395 93.076675,979.101501 
z"/>
<path fill="#000000" opacity="1.000000" stroke="none" 
	d="
M68.972183,924.944214 
	C63.233528,930.759277 57.834660,936.409607 52.250622,941.870544 
	C49.955658,944.114990 49.660976,946.404053 51.080368,949.044983 
	C53.248009,953.078125 53.792328,957.194580 52.072956,961.522339 
	C51.253841,963.584167 51.610279,965.366760 53.231411,966.980042 
	C59.122078,972.842407 64.906120,978.813171 70.862480,984.607300 
	C72.433495,986.135437 74.205307,988.729553 76.745735,987.187439 
	C79.322090,985.623352 81.715721,983.760132 81.291756,979.682007 
	C80.590477,972.936279 82.494385,969.544556 88.196907,966.633728 
	C84.208450,972.026428 83.868774,977.044983 84.300812,982.468140 
	C84.610138,986.350952 80.762444,988.250854 77.869987,990.018311 
	C75.274780,991.604065 72.660629,990.390137 70.638763,988.401550 
	C64.120346,981.990479 57.679123,975.500977 51.198456,969.051392 
	C48.842468,966.706665 48.064831,963.968506 49.278431,960.844238 
	C50.637138,957.346375 50.463928,954.114380 48.392368,950.884888 
	C45.866905,946.947693 46.610481,943.402649 49.917564,940.122681 
	C57.350204,932.751038 64.691406,925.287048 72.042038,917.833191 
	C75.677208,914.146973 79.651772,913.134827 84.052071,916.345764 
	C87.719009,919.021545 91.695709,917.124390 96.371239,917.045166 
	C93.042572,920.333984 89.304459,921.476624 86.356133,919.975647 
	C78.844475,916.151428 73.728508,918.751404 68.972183,924.944214 
z"/>
<path fill="#000000" opacity="1.000000" stroke="none" 
	d="
M964.523926,686.531006 
	C974.440125,676.810730 984.114075,667.343994 994.412292,657.266235 
	C994.270081,660.806580 992.394531,662.075134 990.946045,663.551025 
	C977.888245,676.855957 964.798035,690.129028 951.717957,703.412048 
	C947.323242,707.874939 941.372681,708.280212 937.155090,703.857300 
	C932.283020,698.748047 926.112549,694.826294 923.254456,687.698120 
	C927.019775,691.217529 930.992188,694.543213 934.506226,698.297852 
	C941.282898,705.538391 945.435974,705.750122 952.284180,698.788879 
	C956.251526,694.756104 960.280457,690.783997 964.523926,686.531006 
z"/>
<path fill="#000000" opacity="1.000000" stroke="none" 
	d="
M949.864868,691.555237 
	C949.255066,685.071594 951.062378,680.149109 955.953308,676.177307 
	C959.420654,673.361633 962.877625,670.259521 965.425720,666.641785 
	C970.895203,658.876465 978.406067,659.535156 986.439819,660.185791 
	C985.214905,663.224609 982.941833,662.326599 981.157715,662.145447 
	C976.092651,661.631348 972.116577,663.439026 968.682861,667.065796 
	C964.794250,671.173096 960.640930,675.030396 956.766968,679.150757 
	C953.698242,682.414673 951.868225,686.183289 952.750000,690.932434 
	C953.676270,695.921265 950.457336,698.683594 946.710266,700.816284 
	C942.938049,702.963379 940.432312,700.333496 938.093689,697.908081 
	C936.642090,696.402588 934.916687,695.055237 933.740295,691.782715 
	C936.145813,693.463135 937.778748,694.439758 939.223694,695.642151 
	C944.815430,700.295410 947.716858,699.318848 949.864868,691.555237 
z"/>
<path fill="#000000" opacity="1.000000" stroke="none" 
	d="
M955.464722,670.606506 
	C962.179688,665.746277 964.351135,659.117126 961.448547,653.166748 
	C957.638000,645.355164 951.428223,643.822693 938.814758,647.581116 
	C941.970520,640.740906 951.221802,641.559082 956.887207,644.706848 
	C964.920410,649.169983 967.245850,659.409729 962.109131,668.003113 
	C957.977905,674.914185 949.792480,677.199646 942.649414,672.686707 
	C947.430237,672.739990 951.648132,673.526978 955.464722,670.606506 
z"/>
<path fill="#000000" opacity="1.000000" stroke="none" 
	d="
M76.046982,934.623352 
	C69.680557,937.322327 66.332214,942.036438 66.498535,948.369202 
	C66.727669,957.093445 72.742218,960.995178 80.991653,962.647644 
	C76.167358,965.023499 70.811790,962.843567 66.573502,957.254150 
	C62.052414,951.291748 62.836388,942.163086 68.386253,936.147705 
	C72.853539,931.305725 80.844795,930.260376 86.799332,933.991760 
	C83.132332,934.168152 79.779106,934.329529 76.046982,934.623352 
z"/>
<path fill="#000000" opacity="1.000000" stroke="none" 
	d="
M935.504395,634.497070 
	C937.071106,632.974182 938.417603,631.729614 939.712280,630.433350 
	C945.189087,624.949524 946.096924,624.858459 953.135620,627.994324 
	C955.041382,628.843445 957.249023,629.015137 959.871582,629.626770 
	C956.596741,631.834412 953.788147,630.714783 951.185791,629.470764 
	C947.721985,627.815002 945.018921,628.202454 942.216553,631.002136 
	C936.739380,636.474182 930.977905,641.661560 924.557251,646.206238 
	C928.125000,642.388062 931.692688,638.569885 935.504395,634.497070 
z"/>
<path fill="#000000" opacity="1.000000" stroke="none" 
	d="
M622.031372,949.407166 
	C621.138489,943.784241 622.639832,939.586609 627.819275,936.228088 
	C627.651794,938.773865 626.206543,939.970215 625.379395,941.414917 
	C624.156433,943.551025 623.367676,946.171997 624.454041,948.103516 
	C627.372498,953.292358 626.952881,958.518372 625.950195,963.966919 
	C625.532837,966.234741 626.562744,968.429016 626.875916,970.708862 
	C624.001099,968.252930 622.528442,965.089050 623.779175,961.559753 
	C625.326416,957.193420 624.605530,953.460388 622.031372,949.407166 
z"/>
<path fill="#000000" opacity="1.000000" stroke="none" 
	d="
M440.419861,364.757538 
	C453.728882,390.309021 443.565277,417.229767 416.908569,427.584320 
	C413.645264,428.851929 412.004181,430.618622 412.357025,434.235931 
	C412.598511,436.711456 412.427979,439.230347 412.393066,441.729156 
	C412.287933,449.248596 407.742493,454.024719 400.453033,454.306641 
	C393.708801,454.567474 388.580688,449.857025 387.717438,442.854797 
	C387.277435,439.286011 389.416443,434.599243 386.452026,432.414612 
	C383.857941,430.502808 379.492462,430.956329 375.897491,430.450073 
	C370.744690,429.724518 365.822449,428.129852 361.051727,426.187897 
	C354.969025,423.711914 352.171204,417.138275 354.391479,411.377777 
	C356.713531,405.353210 362.642456,402.406708 369.022644,404.479645 
	C379.038513,407.733856 388.957977,410.786804 399.783112,408.856537 
	C409.868958,407.058105 417.849243,400.915833 419.510742,392.832306 
	C421.553101,382.895844 417.629608,374.914001 407.782715,369.125244 
	C401.432983,365.392395 394.464264,363.060791 387.667877,360.332184 
	C375.356110,355.389221 364.156555,348.811249 358.114868,336.353180 
	C348.425476,316.373627 355.948578,293.003113 376.152191,283.202942 
	C383.845703,279.471069 387.028473,275.491791 385.849060,267.209686 
	C385.240540,262.936798 387.059052,258.973724 390.785767,256.354492 
	C394.698608,253.604446 398.999481,252.587051 403.526581,254.662247 
	C408.332031,256.865051 410.837524,260.799408 411.247559,266.043884 
	C412.007385,275.762665 412.002686,275.716644 421.385773,277.731232 
	C424.142029,278.323029 426.912354,279.042999 429.520752,280.091187 
	C435.849609,282.634399 438.779999,288.587494 436.882629,294.554626 
	C434.971100,300.566254 428.608948,303.807343 421.898743,301.728455 
	C414.458160,299.423218 406.931091,298.677277 399.211273,299.230255 
	C389.868500,299.899475 382.248810,305.575836 380.540314,313.197906 
	C378.639282,321.678986 382.175354,328.519775 390.887909,333.938171 
	C400.437103,339.876923 411.603668,342.158691 421.318726,347.753540 
	C428.803589,352.064056 435.423492,357.178589 440.419861,364.757538 
z"/>
</svg>